PathFileType	4	(X/Y/Z)	pose_F01_0-75.trc
DataRate	CameraRate	NumFrames	NumMarkers	Units	OrigDataRate	OrigDataStartFrame	OrigNumFrames
30	30	6	21	m	30	64	75
Frame#	Time	CHip			RHip			RKnee			RAnkle			RBigToe			RSmallToe			RHeel			LHip			LKnee			LAnkle			LBigToe			LSmallToe			LHeel			Neck			Nose			RShoulder			RElbow			RWrist			LShoulder			LElbow			LWrist			
		X1	Y1	Z1	X2	Y2	Z2	X3	Y3	Z3	X4	Y4	Z4	X5	Y5	Z5	X6	Y6	Z6	X7	Y7	Z7	X8	Y8	Z8	X9	Y9	Z9	X10	Y10	Z10	X11	Y11	Z11	X12	Y12	Z12	X13	Y13	Z13	X14	Y14	Z14	X15	Y15	Z15	X16	Y16	Z16	X17	Y17	Z17	X18	Y18	Z18	X19	Y19	Z19	X20	Y20	Z20	X21	Y21	Z21	
64	2.1333333333333333	-0.16891343305231607	1.8523489678667653	-0.6238499909007749	-0.18333219737906956	1.8499986534354964	-0.5656161521933216	-0.18330834020960562	1.7289629533544741	-0.5523311097399438	-0.18752742623461496	1.614571353323853	-0.5357240247315997	-0.20608252559936768	1.588418356865913	-0.5180974673812889				-0.18512270000182462	1.6083202029171333	-0.5422624084072895	-0.15276785953462557	1.8530432063670543	-0.6905683649783292	-0.14643699209713612	1.7368356463234207	-0.6652413885990839	-0.128539307891649	1.6279936996457416	-0.6681435759175042	-0.14166332237682241	1.6018532107000805	-0.7058561990656418	-0.1279274637914627	1.608667567343692	-0.7204932747884322	-0.12609831323065498	1.617826300951293	-0.6612145187245886	-0.1533717080563468	1.9867042736227647	-0.6467666282986535	-0.15903749001388282	2.04631172577852	-0.6901411232267018	-1.684340919421747	1.8919724109619098	1.0968382440010047	-0.1911605733961657	1.9185455810457634	-0.5039538788901667	-0.20736693396836425	1.8532427681264996	-0.4374876271612638	-0.12823817357886486	1.9872314900910955	-0.7334706730849185	-1.0593073001909883	1.8335368611179537	0.20017253380923275	-0.14389571627319153	1.8626718116978451	-0.7605959300790558
65	2.1666666666666665	-0.17219403476449213	1.8486233018205431	-0.6241365809990723	-0.1856352375571204	1.845571276768727	-0.5628326429571816	-0.1865746352704308	1.728023639310402	-0.5528283107422024	-0.18777610255306257	1.6131551407236284	-0.5352325399161549	-0.20608252559936768	1.588418356865913	-0.5180974673812889				-0.18531067928763095	1.609044797288587	-0.5422592167456504	-0.15538118037488785	1.8496061589464095	-0.6878372912229673	-0.14811688305256537	1.7326516145601913	-0.6590291243884603	-0.13330853524934225	1.6262380368955174	-0.6595938028947368	-0.14364555523130584	1.5974709219734697	-0.6872439938102741	-0.13170580720882819	1.6082544193418553	-0.7044638278340283	-0.1356423496898868	1.6163776241232815	-0.6470284178294251	-1.484471780192021	1.8930592330559317	0.7887433255714902	-0.1618284050038216	2.0465262693548216	-0.6798216184930802	-1.6987517128039216	1.8918706896164503	1.119129358947179	-0.19591229327112777	1.9183825962066856	-0.49371585158493086	-0.20915571381305903	1.8508021460385398	-0.43493978117575693	-0.1305842942525424	1.9864628478777724	-0.7308810162416992	-0.12048940343889156	1.914460747727062	-0.7546121334554177	-0.13793614395026768	1.8503100523371117	-0.7510950614819726
66	2.2	-0.1722409921231618	1.851269059105023	-0.6244892900006941	-0.18570039132841948	1.848096710275416	-0.5631350616976463	-0.18857599929877636	1.7278026299275782	-0.5505746090674983	-0.18738835404123821	1.6137268129088402	-0.535938307772831	-0.20608252559936768	1.588418356865913	-0.5180974673812889				-0.18252233712402413	1.6073672546506346	-0.545661085212573	-0.15536377981944446	1.8521174327406402	-0.6881977636969306	-0.15443339782857243	1.7325013921616086	-0.6521945435130575	-0.14679067530818127	1.618812344240923	-0.6443052866500039	-0.15474523381709843	1.5925492473915506	-0.6756405237918676	-0.1458854892708961	1.5983813792507018	-0.6977047297622917	-0.1466849040489608	1.611703215733104	-0.630990803363135	-0.16208271876849328	1.984679413916515	-0.6373227312833553	-0.16321964736780256	2.046794046458975	-0.6744480035814361	-1.6991680018353428	1.8918483334315936	1.1197815924073244	-0.20106226702214164	1.9180810157139887	-0.49239404525267727	-0.2109444936577538	1.8483615239505802	-0.4323919351902501	-0.13290123249241273	1.9859670317068938	-0.7284621124279911	-0.1297321940657929	1.9150770815050107	-0.7452449785043973	-0.1242689962213414	1.84942398611658	-0.7651987099950308
67	2.2333333333333334	-0.1746579433223473	1.848472399619775	-0.6218104555965385	-0.18793478037345715	1.8468364622601476	-0.5606926068698685	-0.18760882170712193	1.72705121415002	-0.5474080982026213	-0.18727208307660095	1.6132842623626427	-0.5359478293635808	-0.20608252559936768	1.588418356865913	-0.5180974673812889				-0.18229470952198595	1.6065967850945073	-0.5457274121244534	-0.15794696635526337	1.8493807745027075	-0.6853891823861572	-0.15732576605849946	1.7284098774898293	-0.6487067137918329	-0.15505152923351653	1.6134218163879581	-0.6388608463405329	-0.16726135349846113	1.5916650314258003	-0.6667248020467732	-0.15865475839109755	1.5947066639600607	-0.6883793885740968	-0.15767076711232597	1.6045157783921062	-0.6269327978777912	-0.1643104297774	1.9849533275692959	-0.6349168591408829	-0.16546242980509793	2.046088343605688	-0.6721104584108273	-1.7013713189311908	1.8915658147717809	1.122247961227703	-0.20125362246469936	1.9164944218267312	-0.49193164765698627	-0.2204981216485494	1.8488322662224324	-0.4446031275259096	-0.13733693242503323	1.9856205443883057	-0.7238756817870442	-0.13057901463117785	1.916351676770292	-0.7486151620657734	-0.120759579783853	1.8498640531852486	-0.773087716715731
68	2.2666666666666666	-0.17440392572673608	1.8489109238680657	-0.6218931044068046	-0.1878170168370729	1.8455939451601093	-0.5605142181102742	-0.18779276445268947	1.725361416654988	-0.5469751001010088	-0.18727114065569486	1.6129442196810049	-0.5359449934526482	-0.20608252559936768	1.588418356865913	-0.5180974673812889				-0.18248221369702686	1.6073531367728777	-0.5456987235541566	-0.15845214994258497	1.84964598492063	-0.6885083109598734	-0.16165383488850912	1.7283053461210518	-0.6439571419113795	-0.15875878663431223	1.6145515321248791	-0.6310389459050117	-0.1711245749529239	1.589184994725555	-0.6665194151050892	-0.1598803149372956	1.5933068916263562	-0.6909197924326717	-0.16143705552158788	1.6061888994010456	-0.6189331048978447	-1.4891594938333075	1.8929398012717933	0.7937444366937834	-0.16969303063142302	2.0458580286124217	-0.6676779552844098	-1.7001533860723708	1.8895185949768378	1.120597998943752	-0.20587166425845121	1.9146692945232144	-0.4990778285695829	-0.22440583203270678	1.849593972715763	-0.46093785824722056	-0.13727989442716781	1.9869261643877323	-0.7238247358776473	-1.0760387281842139	1.8352505009744766	0.22521200434723734	-0.12097264740801879	1.8549020262212397	-0.7887346976894432
69	2.3	-0.17608352800903723	1.8512684544041127	-0.6286111823534952	-0.18868325448178838	1.8482637722231718	-0.5641076910934615	-0.1885343419901995	1.7272722994740475	-0.5505184007285735	-0.18732470638798474	1.6133498650163673	-0.5358960504081036	-0.20608252559936768	1.588418356865913	-0.5180974673812889				-0.18169014173427753	1.6079322394845568	-0.5425075970591023	-0.1583785535863443	1.851837941865481	-0.6888882301396999	-0.1594089201396909	1.7311232389430404	-0.6467118431174294	-0.1574131488956689	1.6149095391836157	-0.6364472164189889	-0.1699142280368342	1.587897598350634	-0.6635910195499749	-0.15978794793933668	1.5931674633220465	-0.6909780975030013	-0.15894259851825737	1.6073403733730072	-0.6218282181889745	-1.4912037157901228	1.8928795243121186	0.7958711274805413	-0.1697369017932576	2.045819600336727	-0.6676310950601946	-1.7001173826273839	1.8895161651615398	1.1205205649871615	-0.20838431143323516	1.9162321904850934	-0.5067044802828041	-0.22831354241686416	1.850355679209094	-0.4772725889685315	-0.13947719809449577	1.9865405674749725	-0.7215723800232698	-1.065770374356658	1.8354895634790616	0.20964525568872724	-0.11701316271966364	1.857121193062525	-0.7971414640839805
